<?xml version="1.0" encoding="UTF-8"?>
<svg xmlns="http://www.w3.org/2000/svg" xmlns:xlink="http://www.w3.org/1999/xlink" width="288px" height="252px" viewBox="0 0 288 252" version="1.1" id="Fig:dens">
  <metadata xmlns:gridsvg="http://www.stat.auckland.ac.nz/~paul/R/gridSVG/">
    <gridsvg:generator name="gridSVG" version="1.7-2" time="2021-11-13 13:23:11"/>
    <gridsvg:argument name="name" value="QC_RawData/dens.svg"/>
    <gridsvg:argument name="exportCoords" value="none"/>
    <gridsvg:argument name="exportMappings" value="none"/>
    <gridsvg:argument name="exportJS" value="none"/>
    <gridsvg:argument name="res" value="72"/>
    <gridsvg:argument name="prefix" value="Fig:dens"/>
    <gridsvg:argument name="addClasses" value="FALSE"/>
    <gridsvg:argument name="indent" value="TRUE"/>
    <gridsvg:argument name="htmlWrapper" value="FALSE"/>
    <gridsvg:argument name="usePaths" value="none"/>
    <gridsvg:argument name="uniqueNames" value="TRUE"/>
    <gridsvg:separator name="id.sep" value="."/>
    <gridsvg:separator name="gPath.sep" value="::"/>
    <gridsvg:separator name="vpPath.sep" value="::"/>
  </metadata>
  <g transform="translate(0, 252) scale(1, -1)">
    <g id="Fig:densgridSVG" fill="none" stroke="rgb(0,0,0)" stroke-dasharray="none" stroke-width="0.75" font-size="12" font-family="Helvetica, Arial, FreeSans, Liberation Sans, Nimbus Sans L, sans-serif" opacity="1" stroke-linecap="round" stroke-linejoin="round" stroke-miterlimit="10" stroke-opacity="1" fill-opacity="0" font-weight="normal" font-style="normal">
      <g id="Fig:densplot_01.background.1">
        <rect id="Fig:densplot_01.background.1.1" x="0" y="0" width="288" height="252" transform="" fill="none" stroke="none" stroke-opacity="0" fill-opacity="0"/>
      </g>
      <g id="Fig:densplot_01.toplevel.vp.1" font-size="12">
        <g id="Fig:densplot_01.ylab.vp.1">
          <g id="Fig:densplot_01.ylab.1">
            <g id="Fig:densplot_01.ylab.1.1" transform="translate(16.31, 141.09)" stroke-width="0.1">
              <g id="Fig:densplot_01.ylab.1.1.scale" transform="scale(1, -1)">
                <text x="0" y="0" id="Fig:densplot_01.ylab.1.1.text" transform="rotate(-90)" text-anchor="middle" opacity="1" stroke="rgb(0,0,0)" fill="rgb(0,0,0)" stroke-opacity="1" fill-opacity="1" font-size="12" font-weight="normal" font-style="normal">
                  <tspan id="Fig:densplot_01.ylab.1.1.tspan.1" dy="4.31" x="0">Density</tspan>
                </text>
              </g>
            </g>
          </g>
        </g>
        <g id="Fig:densplot_01.figure.vp.1"/>
        <defs>
          <clipPath id="Fig:densplot_01.panel.1.1.vp.1.clipPath">
            <rect x="50.8" y="48.19" width="225.2" height="185.81" fill="none" stroke="none"/>
          </clipPath>
        </defs>
        <g id="Fig:densplot_01.panel.1.1.vp.1" clip-path="url(#Fig:densplot_01.panel.1.1.vp.1.clipPath)"/>
        <g id="Fig:densplot_01.strip.1.1.off.vp.1"/>
        <g id="Fig:densplot_01.strip.left.1.1.off.vp.1">
          <g id="Fig:densplot_01.ticks.left.panel.1.1.1">
            <polyline id="Fig:densplot_01.ticks.left.panel.1.1.1.1" points="50.8,59.6 45.13,59.6" stroke="rgb(0,0,0)" opacity="1" stroke-dasharray="none" stroke-width="0.75" stroke-opacity="1" fill="none"/>
            <polyline id="Fig:densplot_01.ticks.left.panel.1.1.1.2" points="50.8,101.91 45.13,101.91" stroke="rgb(0,0,0)" opacity="1" stroke-dasharray="none" stroke-width="0.75" stroke-opacity="1" fill="none"/>
            <polyline id="Fig:densplot_01.ticks.left.panel.1.1.1.3" points="50.8,144.23 45.13,144.23" stroke="rgb(0,0,0)" opacity="1" stroke-dasharray="none" stroke-width="0.75" stroke-opacity="1" fill="none"/>
            <polyline id="Fig:densplot_01.ticks.left.panel.1.1.1.4" points="50.8,186.55 45.13,186.55" stroke="rgb(0,0,0)" opacity="1" stroke-dasharray="none" stroke-width="0.75" stroke-opacity="1" fill="none"/>
            <polyline id="Fig:densplot_01.ticks.left.panel.1.1.1.5" points="50.8,228.87 45.13,228.87" stroke="rgb(0,0,0)" opacity="1" stroke-dasharray="none" stroke-width="0.75" stroke-opacity="1" fill="none"/>
          </g>
          <g id="Fig:densplot_01.ticklabels.left.panel.1.1.1">
            <g id="Fig:densplot_01.ticklabels.left.panel.1.1.1.1" transform="translate(39.47, 59.6)" stroke-width="0.1">
              <g id="Fig:densplot_01.ticklabels.left.panel.1.1.1.1.scale" transform="scale(1, -1)">
                <text x="0" y="0" id="Fig:densplot_01.ticklabels.left.panel.1.1.1.1.text" transform="rotate(-90)" text-anchor="middle" stroke="rgb(0,0,0)" opacity="1" fill="rgb(0,0,0)" stroke-opacity="1" fill-opacity="1" font-size="9.6" font-weight="normal" font-style="normal">
                  <tspan id="Fig:densplot_01.ticklabels.left.panel.1.1.1.1.tspan.1" dy="0" x="0">0.000</tspan>
                </text>
              </g>
            </g>
            <g id="Fig:densplot_01.ticklabels.left.panel.1.1.1.2" transform="translate(39.47, 101.91)" stroke-width="0.1">
              <g id="Fig:densplot_01.ticklabels.left.panel.1.1.1.2.scale" transform="scale(1, -1)">
                <text x="0" y="0" id="Fig:densplot_01.ticklabels.left.panel.1.1.1.2.text" transform="rotate(-90)" text-anchor="middle" stroke="rgb(0,0,0)" opacity="1" fill="rgb(0,0,0)" stroke-opacity="1" fill-opacity="1" font-size="9.6" font-weight="normal" font-style="normal">
                  <tspan id="Fig:densplot_01.ticklabels.left.panel.1.1.1.2.tspan.1" dy="0" x="0">0.002</tspan>
                </text>
              </g>
            </g>
            <g id="Fig:densplot_01.ticklabels.left.panel.1.1.1.3" transform="translate(39.47, 144.23)" stroke-width="0.1">
              <g id="Fig:densplot_01.ticklabels.left.panel.1.1.1.3.scale" transform="scale(1, -1)">
                <text x="0" y="0" id="Fig:densplot_01.ticklabels.left.panel.1.1.1.3.text" transform="rotate(-90)" text-anchor="middle" stroke="rgb(0,0,0)" opacity="1" fill="rgb(0,0,0)" stroke-opacity="1" fill-opacity="1" font-size="9.6" font-weight="normal" font-style="normal">
                  <tspan id="Fig:densplot_01.ticklabels.left.panel.1.1.1.3.tspan.1" dy="0" x="0">0.004</tspan>
                </text>
              </g>
            </g>
            <g id="Fig:densplot_01.ticklabels.left.panel.1.1.1.4" transform="translate(39.47, 186.55)" stroke-width="0.1">
              <g id="Fig:densplot_01.ticklabels.left.panel.1.1.1.4.scale" transform="scale(1, -1)">
                <text x="0" y="0" id="Fig:densplot_01.ticklabels.left.panel.1.1.1.4.text" transform="rotate(-90)" text-anchor="middle" stroke="rgb(0,0,0)" opacity="1" fill="rgb(0,0,0)" stroke-opacity="1" fill-opacity="1" font-size="9.6" font-weight="normal" font-style="normal">
                  <tspan id="Fig:densplot_01.ticklabels.left.panel.1.1.1.4.tspan.1" dy="0" x="0">0.006</tspan>
                </text>
              </g>
            </g>
            <g id="Fig:densplot_01.ticklabels.left.panel.1.1.1.5" transform="translate(39.47, 228.87)" stroke-width="0.1">
              <g id="Fig:densplot_01.ticklabels.left.panel.1.1.1.5.scale" transform="scale(1, -1)">
                <text x="0" y="0" id="Fig:densplot_01.ticklabels.left.panel.1.1.1.5.text" transform="rotate(-90)" text-anchor="middle" stroke="rgb(0,0,0)" opacity="1" fill="rgb(0,0,0)" stroke-opacity="1" fill-opacity="1" font-size="9.6" font-weight="normal" font-style="normal">
                  <tspan id="Fig:densplot_01.ticklabels.left.panel.1.1.1.5.tspan.1" dy="0" x="0">0.008</tspan>
                </text>
              </g>
            </g>
          </g>
        </g>
        <g id="Fig:densplot_01.panel.1.1.off.vp.1">
          <g id="Fig:densplot_01.ticks.bottom.panel.1.1.1">
            <polyline id="Fig:densplot_01.ticks.bottom.panel.1.1.1.1" points="65.42,48.19 65.42,42.52" stroke="rgb(0,0,0)" opacity="1" stroke-dasharray="none" stroke-width="0.75" stroke-opacity="1" fill="none"/>
            <polyline id="Fig:densplot_01.ticks.bottom.panel.1.1.1.2" points="118.74,48.19 118.74,42.52" stroke="rgb(0,0,0)" opacity="1" stroke-dasharray="none" stroke-width="0.75" stroke-opacity="1" fill="none"/>
            <polyline id="Fig:densplot_01.ticks.bottom.panel.1.1.1.3" points="172.07,48.19 172.07,42.52" stroke="rgb(0,0,0)" opacity="1" stroke-dasharray="none" stroke-width="0.75" stroke-opacity="1" fill="none"/>
            <polyline id="Fig:densplot_01.ticks.bottom.panel.1.1.1.4" points="225.39,48.19 225.39,42.52" stroke="rgb(0,0,0)" opacity="1" stroke-dasharray="none" stroke-width="0.75" stroke-opacity="1" fill="none"/>
          </g>
          <g id="Fig:densplot_01.ticklabels.bottom.panel.1.1.1">
            <g id="Fig:densplot_01.ticklabels.bottom.panel.1.1.1.1" transform="translate(65.42, 36.85)" stroke-width="0.1">
              <g id="Fig:densplot_01.ticklabels.bottom.panel.1.1.1.1.scale" transform="scale(1, -1)">
                <text x="0" y="0" id="Fig:densplot_01.ticklabels.bottom.panel.1.1.1.1.text" text-anchor="middle" stroke="rgb(0,0,0)" opacity="1" fill="rgb(0,0,0)" stroke-opacity="1" fill-opacity="1" font-size="9.6" font-weight="normal" font-style="normal">
                  <tspan id="Fig:densplot_01.ticklabels.bottom.panel.1.1.1.1.tspan.1" dy="7.18" x="0">0</tspan>
                </text>
              </g>
            </g>
            <g id="Fig:densplot_01.ticklabels.bottom.panel.1.1.1.2" transform="translate(118.74, 36.85)" stroke-width="0.1">
              <g id="Fig:densplot_01.ticklabels.bottom.panel.1.1.1.2.scale" transform="scale(1, -1)">
                <text x="0" y="0" id="Fig:densplot_01.ticklabels.bottom.panel.1.1.1.2.text" text-anchor="middle" stroke="rgb(0,0,0)" opacity="1" fill="rgb(0,0,0)" stroke-opacity="1" fill-opacity="1" font-size="9.6" font-weight="normal" font-style="normal">
                  <tspan id="Fig:densplot_01.ticklabels.bottom.panel.1.1.1.2.tspan.1" dy="7.18" x="0">2000</tspan>
                </text>
              </g>
            </g>
            <g id="Fig:densplot_01.ticklabels.bottom.panel.1.1.1.3" transform="translate(172.07, 36.85)" stroke-width="0.1">
              <g id="Fig:densplot_01.ticklabels.bottom.panel.1.1.1.3.scale" transform="scale(1, -1)">
                <text x="0" y="0" id="Fig:densplot_01.ticklabels.bottom.panel.1.1.1.3.text" text-anchor="middle" stroke="rgb(0,0,0)" opacity="1" fill="rgb(0,0,0)" stroke-opacity="1" fill-opacity="1" font-size="9.6" font-weight="normal" font-style="normal">
                  <tspan id="Fig:densplot_01.ticklabels.bottom.panel.1.1.1.3.tspan.1" dy="7.18" x="0">4000</tspan>
                </text>
              </g>
            </g>
            <g id="Fig:densplot_01.ticklabels.bottom.panel.1.1.1.4" transform="translate(225.39, 36.85)" stroke-width="0.1">
              <g id="Fig:densplot_01.ticklabels.bottom.panel.1.1.1.4.scale" transform="scale(1, -1)">
                <text x="0" y="0" id="Fig:densplot_01.ticklabels.bottom.panel.1.1.1.4.text" text-anchor="middle" stroke="rgb(0,0,0)" opacity="1" fill="rgb(0,0,0)" stroke-opacity="1" fill-opacity="1" font-size="9.6" font-weight="normal" font-style="normal">
                  <tspan id="Fig:densplot_01.ticklabels.bottom.panel.1.1.1.4.tspan.1" dy="7.18" x="0">6000</tspan>
                </text>
              </g>
            </g>
          </g>
        </g>
        <defs>
          <clipPath id="Fig:densplot_01.panel.1.1.vp.2.clipPath">
            <rect x="50.8" y="48.19" width="225.2" height="185.81" fill="none" stroke="none"/>
          </clipPath>
        </defs>
        <g id="Fig:densplot_01.panel.1.1.vp.2" clip-path="url(#Fig:densplot_01.panel.1.1.vp.2.clipPath)">
          <g id="Fig:densplot_01.xyplot.lines.group.1.panel.1.1.1">
            <polyline id="Fig:densplot_01.xyplot.lines.group.1.panel.1.1.1.1" points="65.17,59.9 65.56,67 65.94,112.35 66.33,199.69 66.71,222.59 67.09,189.66 67.48,155.34 67.86,134.02 68.25,120.81 68.63,111.72 69.02,104.96 69.4,99.48 69.79,94.97 70.17,91.27 70.55,88.1 70.94,85.36 71.32,82.94 71.71,80.88 72.09,79.17 72.48,77.6 72.86,76.14 73.25,74.85 73.63,73.7 74.01,72.65 74.4,71.73 74.78,70.89 75.17,70.13 75.55,69.48 75.94,68.91 76.32,68.39 76.7,67.93 77.09,67.48 77.47,67.02 77.86,66.59 78.24,66.22 78.63,65.86 79.01,65.54 79.4,65.3 79.78,65.06 80.16,64.8 80.55,64.56 80.93,64.31 81.32,64.07 81.7,63.89 82.09,63.79 82.47,63.67 82.86,63.49 83.24,63.3 83.62,63.14 84.01,63 84.39,62.9 84.78,62.83 85.16,62.74 85.55,62.65 85.93,62.53 86.32,62.42 86.7,62.31 87.08,62.21 87.47,62.14 87.85,62.07 88.24,62 88.62,61.91 89.01,61.84 89.39,61.78 89.77,61.71 90.16,61.65 90.54,61.6 90.93,61.58 91.31,61.54 91.7,61.47 92.08,61.39 92.47,61.33 92.85,61.29 93.23,61.24 93.62,61.24 94,61.22 94.39,61.19 94.77,61.14 95.16,61.1 95.54,61.09 95.93,61.04 96.31,60.98 96.69,60.93 97.08,60.89 97.46,60.88 97.85,60.88 98.23,60.83 98.62,60.81 99,60.79 99.38,60.76 99.77,60.73 100.15,60.71 100.54,60.69 100.92,60.69 101.31,60.69 101.69,60.66 102.08,60.63 102.46,60.61 102.84,60.59 103.23,60.53 103.61,60.5 104,60.5 104.38,60.5 104.77,60.48 105.15,60.45 105.54,60.43 105.92,60.43 106.3,60.44 106.69,60.44 107.07,60.42 107.46,60.39 107.84,60.36 108.23,60.33 108.61,60.3 109,60.3 109.38,60.3 109.76,60.31 110.15,60.32 110.53,60.3 110.92,60.28 111.3,60.26 111.69,60.26 112.07,60.25 112.45,60.24 112.84,60.21 113.22,60.21 113.61,60.21 113.99,60.21 114.38,60.21 114.76,60.2 115.15,60.19 115.53,60.18 115.91,60.16 116.3,60.16 116.68,60.15 117.07,60.14 117.45,60.13 117.84,60.11 118.22,60.09 118.61,60.08 118.99,60.08 119.37,60.08 119.76,60.08 120.14,60.09 120.53,60.11 120.91,60.12 121.3,60.12 121.68,60.1 122.06,60.07 122.45,60.04 122.83,60.02 123.22,60.01 123.6,60 123.99,60 124.37,60.01 124.76,60.03 125.14,60.02 125.52,60 125.91,59.99 126.29,60 126.68,60.01 127.06,59.99 127.45,59.97 127.83,59.96 128.22,59.96 128.6,59.99 128.98,59.99 129.37,59.97 129.75,59.96 130.14,59.95 130.52,59.95 130.91,59.96 131.29,59.96 131.68,59.94 132.06,59.92 132.44,59.94 132.83,59.96 133.21,59.95 133.6,59.93 133.98,59.92 134.37,59.9 134.75,59.9 135.13,59.9 135.52,59.89 135.9,59.9 136.29,59.91 136.67,59.9 137.06,59.88 137.44,59.88 137.83,59.87 138.21,59.87 138.59,59.87 138.98,59.87 139.36,59.87 139.75,59.87 140.13,59.87 140.52,59.87 140.9,59.86 141.29,59.86 141.67,59.86 142.05,59.86 142.44,59.85 142.82,59.84 143.21,59.84 143.59,59.84 143.98,59.84 144.36,59.84 144.74,59.84 145.13,59.84 145.51,59.84 145.9,59.84 146.28,59.83 146.67,59.82 147.05,59.83 147.44,59.85 147.82,59.85 148.2,59.83 148.59,59.81 148.97,59.81 149.36,59.82 149.74,59.83 150.13,59.83 150.51,59.82 150.9,59.81 151.28,59.82 151.66,59.83 152.05,59.82 152.43,59.8 152.82,59.79 153.2,59.78 153.59,59.79 153.97,59.79 154.36,59.78 154.74,59.78 155.12,59.78 155.51,59.79 155.89,59.79 156.28,59.79 156.66,59.78 157.05,59.78 157.43,59.78 157.81,59.77 158.2,59.78 158.58,59.78 158.97,59.77 159.35,59.77 159.74,59.78 160.12,59.78 160.51,59.77 160.89,59.76 161.27,59.77 161.66,59.78 162.04,59.79 162.43,59.79 162.81,59.78 163.2,59.76 163.58,59.76 163.97,59.75 164.35,59.75 164.73,59.76 165.12,59.76 165.5,59.76 165.89,59.76 166.27,59.76 166.66,59.76 167.04,59.76 167.42,59.75 167.81,59.74 168.19,59.74 168.58,59.74 168.96,59.75 169.35,59.74 169.73,59.75 170.12,59.75 170.5,59.74 170.88,59.73 171.27,59.73 171.65,59.73 172.04,59.74 172.42,59.74 172.81,59.74 173.19,59.74 173.58,59.74 173.96,59.74 174.34,59.74 174.73,59.73 175.11,59.73 175.5,59.73 175.88,59.74 176.27,59.73 176.65,59.73 177.04,59.73 177.42,59.73 177.8,59.73 178.19,59.73 178.57,59.73 178.96,59.72 179.34,59.72 179.73,59.72 180.11,59.71 180.49,59.71 180.88,59.71 181.26,59.71 181.65,59.71 182.03,59.71 182.42,59.71 182.8,59.72 183.19,59.71 183.57,59.71 183.95,59.71 184.34,59.71 184.72,59.71 185.11,59.71 185.49,59.71 185.88,59.71 186.26,59.7 186.65,59.7 187.03,59.7 187.41,59.7 187.8,59.71 188.18,59.71 188.57,59.7 188.95,59.7 189.34,59.7 189.72,59.71 190.1,59.71 190.49,59.7 190.87,59.7 191.26,59.69 191.64,59.7 192.03,59.7 192.41,59.7 192.8,59.7 193.18,59.69 193.56,59.7 193.95,59.7 194.33,59.71 194.72,59.71 195.1,59.71 195.49,59.7 195.87,59.71 196.26,59.7 196.64,59.69 197.02,59.69 197.41,59.69 197.79,59.69 198.18,59.69 198.56,59.69 198.95,59.69 199.33,59.69 199.72,59.69 200.1,59.7 200.48,59.7 200.87,59.69 201.25,59.69 201.64,59.7 202.02,59.69 202.41,59.68 202.79,59.69 203.17,59.69 203.56,59.69 203.94,59.69 204.33,59.69 204.71,59.7 205.1,59.71 205.48,59.7 205.87,59.69 206.25,59.69 206.63,59.69 207.02,59.68 207.4,59.67 207.79,59.67 208.17,59.68 208.56,59.68 208.94,59.69 209.33,59.68 209.71,59.68 210.09,59.68 210.48,59.69 210.86,59.69 211.25,59.69 211.63,59.68 212.02,59.69 212.4,59.69 212.78,59.68 213.17,59.68 213.55,59.68 213.94,59.68 214.32,59.68 214.71,59.68 215.09,59.68 215.48,59.68 215.86,59.68 216.24,59.67 216.63,59.67 217.01,59.68 217.4,59.68 217.78,59.68 218.17,59.68 218.55,59.68 218.94,59.68 219.32,59.69 219.7,59.69 220.09,59.69 220.47,59.68 220.86,59.67 221.24,59.67 221.63,59.67 222.01,59.68 222.4,59.68 222.78,59.67 223.16,59.66 223.55,59.66 223.93,59.67 224.32,59.68 224.7,59.68 225.09,59.68 225.47,59.67 225.85,59.67 226.24,59.67 226.62,59.67 227.01,59.67 227.39,59.67 227.78,59.66 228.16,59.67 228.55,59.67 228.93,59.67 229.31,59.66 229.7,59.67 230.08,59.67 230.47,59.67 230.85,59.67 231.24,59.68 231.62,59.68 232.01,59.68 232.39,59.67 232.77,59.66 233.16,59.66 233.54,59.66 233.93,59.66 234.31,59.66 234.7,59.66 235.08,59.65 235.46,59.66 235.85,59.67 236.23,59.68 236.62,59.68 237,59.67 237.39,59.66 237.77,59.67 238.16,59.67 238.54,59.67 238.92,59.67 239.31,59.67 239.69,59.67 240.08,59.67 240.46,59.67 240.85,59.67 241.23,59.68 241.62,59.68 242,59.68 242.38,59.67 242.77,59.67 243.15,59.67 243.54,59.67 243.92,59.67 244.31,59.67 244.69,59.67 245.07,59.67 245.46,59.68 245.84,59.68 246.23,59.68 246.61,59.67 247,59.67 247.38,59.67 247.77,59.67 248.15,59.67 248.53,59.67 248.92,59.67 249.3,59.67 249.69,59.68 250.07,59.68 250.46,59.68 250.84,59.67 251.23,59.67 251.61,59.67 251.99,59.67 252.38,59.67 252.76,59.67 253.15,59.68 253.53,59.68 253.92,59.68 254.3,59.68 254.69,59.67 255.07,59.67 255.45,59.67 255.84,59.68 256.22,59.68 256.61,59.68 256.99,59.69 257.38,59.69 257.76,59.7 258.14,59.7 258.53,59.7 258.91,59.69 259.3,59.69 259.68,59.69 260.07,59.69 260.45,59.68 260.84,59.64 261.22,59.61 261.6,59.6" stroke-dasharray="none" stroke="rgb(31,120,180)" stroke-width="0.75" opacity="1" stroke-opacity="1" fill="none"/>
          </g>
          <g id="Fig:densplot_01.xyplot.lines.group.2.panel.1.1.1">
            <polyline id="Fig:densplot_01.xyplot.lines.group.2.panel.1.1.1.1" points="64.83,59.73 65.21,61.75 65.6,75.21 65.99,116.09 66.37,168.61 66.76,186.59 67.14,169.12 67.53,145.02 67.91,127.67 68.3,116.45 68.69,108.71 69.07,102.89 69.46,98.2 69.84,94.35 70.23,91.18 70.61,88.49 71,86.13 71.39,84.05 71.77,82.21 72.16,80.53 72.54,78.95 72.93,77.53 73.31,76.3 73.7,75.21 74.09,74.21 74.47,73.28 74.86,72.45 75.24,71.69 75.63,71.04 76.01,70.47 76.4,69.93 76.79,69.38 77.17,68.85 77.56,68.37 77.94,67.91 78.33,67.47 78.71,67.07 79.1,66.71 79.49,66.39 79.87,66.12 80.26,65.89 80.64,65.68 81.03,65.44 81.41,65.19 81.8,64.93 82.18,64.7 82.57,64.5 82.96,64.32 83.34,64.13 83.73,63.98 84.11,63.83 84.5,63.71 84.88,63.6 85.27,63.47 85.66,63.34 86.04,63.23 86.43,63.1 86.81,62.96 87.2,62.84 87.58,62.74 87.97,62.65 88.36,62.56 88.74,62.48 89.13,62.41 89.51,62.35 89.9,62.32 90.28,62.28 90.67,62.21 91.06,62.12 91.44,62.04 91.83,61.96 92.21,61.88 92.6,61.82 92.98,61.77 93.37,61.75 93.76,61.72 94.14,61.66 94.53,61.57 94.91,61.48 95.3,61.44 95.68,61.42 96.07,61.41 96.46,61.39 96.84,61.35 97.23,61.3 97.61,61.27 98,61.26 98.38,61.24 98.77,61.19 99.16,61.12 99.54,61.08 99.93,61.07 100.31,61.08 100.7,61.06 101.08,61.04 101.47,61.01 101.86,60.99 102.24,60.97 102.63,60.93 103.01,60.9 103.4,60.86 103.78,60.83 104.17,60.81 104.56,60.79 104.94,60.76 105.33,60.73 105.71,60.7 106.1,60.67 106.48,60.64 106.87,60.63 107.26,60.63 107.64,60.63 108.03,60.6 108.41,60.56 108.8,60.54 109.18,60.55 109.57,60.56 109.96,60.55 110.34,60.53 110.73,60.51 111.11,60.5 111.5,60.49 111.88,60.48 112.27,60.48 112.66,60.48 113.04,60.46 113.43,60.44 113.81,60.42 114.2,60.4 114.58,60.4 114.97,60.41 115.36,60.4 115.74,60.38 116.13,60.36 116.51,60.34 116.9,60.33 117.28,60.32 117.67,60.31 118.06,60.29 118.44,60.28 118.83,60.28 119.21,60.27 119.6,60.26 119.98,60.26 120.37,60.25 120.76,60.26 121.14,60.25 121.53,60.23 121.91,60.22 122.3,60.21 122.68,60.2 123.07,60.18 123.46,60.18 123.84,60.19 124.23,60.2 124.61,60.19 125,60.19 125.38,60.18 125.77,60.17 126.16,60.16 126.54,60.16 126.93,60.16 127.31,60.15 127.7,60.13 128.08,60.11 128.47,60.09 128.85,60.08 129.24,60.08 129.63,60.1 130.01,60.11 130.4,60.1 130.78,60.08 131.17,60.07 131.55,60.06 131.94,60.06 132.33,60.06 132.71,60.07 133.1,60.07 133.48,60.07 133.87,60.07 134.25,60.06 134.64,60.04 135.03,60.03 135.41,60.03 135.8,60.04 136.18,60.03 136.57,60.03 136.95,60.03 137.34,60.03 137.73,60.03 138.11,60.02 138.5,60.01 138.88,59.99 139.27,60 139.65,60.01 140.04,60.02 140.43,60.01 140.81,59.99 141.2,59.98 141.58,59.98 141.97,59.97 142.35,59.97 142.74,59.98 143.13,59.99 143.51,59.98 143.9,59.97 144.28,59.95 144.67,59.94 145.05,59.95 145.44,59.95 145.83,59.94 146.21,59.94 146.6,59.93 146.98,59.93 147.37,59.93 147.75,59.93 148.14,59.93 148.53,59.93 148.91,59.92 149.3,59.9 149.68,59.9 150.07,59.9 150.45,59.91 150.84,59.9 151.23,59.9 151.61,59.89 152,59.89 152.38,59.89 152.77,59.9 153.15,59.9 153.54,59.9 153.93,59.89 154.31,59.88 154.7,59.87 155.08,59.87 155.47,59.86 155.85,59.86 156.24,59.86 156.63,59.86 157.01,59.86 157.4,59.84 157.78,59.84 158.17,59.85 158.55,59.86 158.94,59.86 159.33,59.86 159.71,59.86 160.1,59.85 160.48,59.85 160.87,59.84 161.25,59.83 161.64,59.83 162.03,59.83 162.41,59.84 162.8,59.84 163.18,59.84 163.57,59.83 163.95,59.83 164.34,59.83 164.73,59.83 165.11,59.83 165.5,59.82 165.88,59.82 166.27,59.81 166.65,59.82 167.04,59.82 167.43,59.81 167.81,59.8 168.2,59.8 168.58,59.8 168.97,59.8 169.35,59.8 169.74,59.81 170.13,59.82 170.51,59.82 170.9,59.8 171.28,59.79 171.67,59.79 172.05,59.78 172.44,59.79 172.82,59.79 173.21,59.79 173.6,59.8 173.98,59.8 174.37,59.8 174.75,59.8 175.14,59.79 175.52,59.79 175.91,59.79 176.3,59.79 176.68,59.8 177.07,59.79 177.45,59.78 177.84,59.78 178.22,59.78 178.61,59.78 179,59.77 179.38,59.77 179.77,59.77 180.15,59.77 180.54,59.77 180.92,59.77 181.31,59.77 181.7,59.77 182.08,59.78 182.47,59.78 182.85,59.77 183.24,59.77 183.62,59.76 184.01,59.76 184.4,59.76 184.78,59.76 185.17,59.76 185.55,59.75 185.94,59.75 186.32,59.75 186.71,59.75 187.1,59.75 187.48,59.75 187.87,59.75 188.25,59.74 188.64,59.74 189.02,59.75 189.41,59.75 189.8,59.75 190.18,59.75 190.57,59.75 190.95,59.75 191.34,59.75 191.72,59.75 192.11,59.75 192.5,59.74 192.88,59.73 193.27,59.73 193.65,59.73 194.04,59.74 194.42,59.74 194.81,59.74 195.2,59.74 195.58,59.75 195.97,59.75 196.35,59.74 196.74,59.74 197.12,59.74 197.51,59.74 197.9,59.73 198.28,59.73 198.67,59.72 199.05,59.72 199.44,59.73 199.82,59.73 200.21,59.72 200.6,59.71 200.98,59.71 201.37,59.71 201.75,59.71 202.14,59.71 202.52,59.72 202.91,59.72 203.3,59.72 203.68,59.72 204.07,59.72 204.45,59.72 204.84,59.71 205.22,59.71 205.61,59.7 206,59.7 206.38,59.71 206.77,59.72 207.15,59.72 207.54,59.73 207.92,59.73 208.31,59.72 208.7,59.72 209.08,59.72 209.47,59.72 209.85,59.71 210.24,59.71 210.62,59.71 211.01,59.7 211.4,59.7 211.78,59.7 212.17,59.7 212.55,59.7 212.94,59.71 213.32,59.71 213.71,59.7 214.1,59.7 214.48,59.7 214.87,59.7 215.25,59.7 215.64,59.7 216.02,59.7 216.41,59.7 216.8,59.7 217.18,59.7 217.57,59.7 217.95,59.7 218.34,59.7 218.72,59.7 219.11,59.7 219.49,59.7 219.88,59.69 220.27,59.69 220.65,59.7 221.04,59.7 221.42,59.71 221.81,59.7 222.19,59.69 222.58,59.68 222.97,59.68 223.35,59.69 223.74,59.68 224.12,59.68 224.51,59.68 224.89,59.69 225.28,59.7 225.67,59.7 226.05,59.7 226.44,59.69 226.82,59.69 227.21,59.69 227.59,59.69 227.98,59.69 228.37,59.7 228.75,59.7 229.14,59.69 229.52,59.69 229.91,59.69 230.29,59.69 230.68,59.69 231.07,59.69 231.45,59.69 231.84,59.69 232.22,59.69 232.61,59.69 232.99,59.68 233.38,59.68 233.77,59.68 234.15,59.68 234.54,59.68 234.92,59.68 235.31,59.69 235.69,59.69 236.08,59.69 236.47,59.69 236.85,59.68 237.24,59.68 237.62,59.68 238.01,59.68 238.39,59.67 238.78,59.67 239.17,59.67 239.55,59.68 239.94,59.68 240.32,59.68 240.71,59.68 241.09,59.68 241.48,59.68 241.87,59.68 242.25,59.68 242.64,59.68 243.02,59.68 243.41,59.67 243.79,59.67 244.18,59.67 244.57,59.68 244.95,59.68 245.34,59.68 245.72,59.68 246.11,59.67 246.49,59.68 246.88,59.68 247.27,59.67 247.65,59.67 248.04,59.67 248.42,59.67 248.81,59.67 249.19,59.67 249.58,59.67 249.97,59.68 250.35,59.68 250.74,59.68 251.12,59.68 251.51,59.68 251.89,59.67 252.28,59.67 252.67,59.68 253.05,59.68 253.44,59.67 253.82,59.67 254.21,59.67 254.59,59.68 254.98,59.68 255.37,59.69 255.75,59.69 256.14,59.68 256.52,59.67 256.91,59.67 257.29,59.68 257.68,59.68 258.07,59.68 258.45,59.68 258.84,59.68 259.22,59.68 259.61,59.67 259.99,59.67 260.38,59.66 260.77,59.64 261.15,59.61 261.54,59.6 261.92,59.6" stroke-dasharray="none" stroke="rgb(31,120,180)" stroke-width="0.75" opacity="1" stroke-opacity="1" fill="none"/>
          </g>
          <g id="Fig:densplot_01.xyplot.lines.group.3.panel.1.1.1">
            <polyline id="Fig:densplot_01.xyplot.lines.group.3.panel.1.1.1.1" points="64.73,59.83 65.12,61.81 65.5,71.18 65.89,96.08 66.27,133.6 66.66,162.45 67.05,166.05 67.43,152.25 67.82,136.04 68.21,123.23 68.59,113.72 68.98,106.43 69.36,100.63 69.75,95.98 70.14,92.25 70.52,89.23 70.91,86.76 71.3,84.66 71.68,82.76 72.07,81.03 72.45,79.44 72.84,78.02 73.23,76.78 73.61,75.7 74,74.72 74.38,73.84 74.77,73.04 75.16,72.33 75.54,71.65 75.93,71.02 76.32,70.48 76.7,69.97 77.09,69.49 77.47,69 77.86,68.5 78.25,68.02 78.63,67.6 79.02,67.25 79.41,66.94 79.79,66.62 80.18,66.3 80.56,65.98 80.95,65.73 81.34,65.54 81.72,65.35 82.11,65.14 82.49,64.93 82.88,64.75 83.27,64.57 83.65,64.4 84.04,64.23 84.43,64.07 84.81,63.91 85.2,63.78 85.58,63.66 85.97,63.54 86.36,63.41 86.74,63.29 87.13,63.16 87.52,63.04 87.9,62.93 88.29,62.85 88.67,62.78 89.06,62.69 89.45,62.6 89.83,62.53 90.22,62.48 90.6,62.4 90.99,62.32 91.38,62.25 91.76,62.2 92.15,62.14 92.54,62.08 92.92,62.02 93.31,61.97 93.69,61.92 94.08,61.87 94.47,61.83 94.85,61.79 95.24,61.75 95.63,61.69 96.01,61.62 96.4,61.57 96.78,61.55 97.17,61.53 97.56,61.48 97.94,61.43 98.33,61.38 98.71,61.34 99.1,61.3 99.49,61.28 99.87,61.27 100.26,61.26 100.65,61.24 101.03,61.21 101.42,61.18 101.8,61.14 102.19,61.09 102.58,61.04 102.96,61.01 103.35,61 103.74,60.98 104.12,60.96 104.51,60.94 104.89,60.92 105.28,60.91 105.67,60.91 106.05,60.9 106.44,60.87 106.82,60.85 107.21,60.82 107.6,60.79 107.98,60.76 108.37,60.73 108.76,60.72 109.14,60.71 109.53,60.69 109.91,60.67 110.3,60.64 110.69,60.63 111.07,60.61 111.46,60.59 111.85,60.58 112.23,60.59 112.62,60.58 113,60.56 113.39,60.55 113.78,60.56 114.16,60.57 114.55,60.56 114.93,60.54 115.32,60.52 115.71,60.5 116.09,60.49 116.48,60.47 116.87,60.46 117.25,60.44 117.64,60.43 118.02,60.43 118.41,60.42 118.8,60.41 119.18,60.39 119.57,60.38 119.96,60.36 120.34,60.33 120.73,60.32 121.11,60.32 121.5,60.32 121.89,60.33 122.27,60.33 122.66,60.32 123.05,60.3 123.43,60.29 123.82,60.28 124.2,60.26 124.59,60.25 124.98,60.25 125.36,60.26 125.75,60.26 126.13,60.26 126.52,60.24 126.91,60.23 127.29,60.21 127.68,60.2 128.07,60.2 128.45,60.19 128.84,60.19 129.22,60.18 129.61,60.17 130,60.16 130.38,60.15 130.77,60.15 131.16,60.16 131.54,60.17 131.93,60.17 132.31,60.16 132.7,60.15 133.09,60.12 133.47,60.11 133.86,60.1 134.24,60.1 134.63,60.09 135.02,60.08 135.4,60.08 135.79,60.08 136.18,60.09 136.56,60.09 136.95,60.09 137.33,60.08 137.72,60.06 138.11,60.05 138.49,60.05 138.88,60.06 139.27,60.07 139.65,60.06 140.04,60.05 140.42,60.03 140.81,60.03 141.2,60.03 141.58,60.02 141.97,60.02 142.35,60.03 142.74,60.03 143.13,60.02 143.51,60.01 143.9,60 144.29,60.01 144.67,60.01 145.06,60 145.44,59.98 145.83,59.97 146.22,59.97 146.6,59.96 146.99,59.96 147.38,59.96 147.76,59.96 148.15,59.97 148.53,59.96 148.92,59.96 149.31,59.96 149.69,59.96 150.08,59.95 150.46,59.95 150.85,59.95 151.24,59.95 151.62,59.95 152.01,59.95 152.4,59.95 152.78,59.94 153.17,59.93 153.55,59.92 153.94,59.91 154.33,59.91 154.71,59.9 155.1,59.89 155.49,59.89 155.87,59.9 156.26,59.9 156.64,59.91 157.03,59.91 157.42,59.91 157.8,59.9 158.19,59.89 158.57,59.88 158.96,59.88 159.35,59.88 159.73,59.88 160.12,59.88 160.51,59.9 160.89,59.9 161.28,59.89 161.66,59.88 162.05,59.87 162.44,59.86 162.82,59.86 163.21,59.87 163.6,59.88 163.98,59.88 164.37,59.87 164.75,59.86 165.14,59.86 165.53,59.87 165.91,59.87 166.3,59.87 166.68,59.87 167.07,59.86 167.46,59.85 167.84,59.85 168.23,59.85 168.62,59.85 169,59.85 169.39,59.85 169.77,59.85 170.16,59.84 170.55,59.84 170.93,59.84 171.32,59.83 171.71,59.84 172.09,59.84 172.48,59.85 172.86,59.84 173.25,59.84 173.64,59.84 174.02,59.83 174.41,59.82 174.79,59.81 175.18,59.81 175.57,59.81 175.95,59.82 176.34,59.82 176.73,59.82 177.11,59.82 177.5,59.81 177.88,59.82 178.27,59.82 178.66,59.82 179.04,59.82 179.43,59.81 179.82,59.8 180.2,59.8 180.59,59.8 180.97,59.8 181.36,59.8 181.75,59.8 182.13,59.8 182.52,59.8 182.9,59.8 183.29,59.81 183.68,59.81 184.06,59.8 184.45,59.79 184.84,59.78 185.22,59.78 185.61,59.78 185.99,59.78 186.38,59.78 186.77,59.78 187.15,59.78 187.54,59.78 187.93,59.78 188.31,59.79 188.7,59.79 189.08,59.79 189.47,59.78 189.86,59.78 190.24,59.78 190.63,59.78 191.01,59.78 191.4,59.77 191.79,59.77 192.17,59.76 192.56,59.76 192.95,59.76 193.33,59.76 193.72,59.76 194.1,59.76 194.49,59.76 194.88,59.76 195.26,59.76 195.65,59.75 196.04,59.75 196.42,59.76 196.81,59.76 197.19,59.76 197.58,59.76 197.97,59.75 198.35,59.75 198.74,59.75 199.12,59.75 199.51,59.76 199.9,59.76 200.28,59.76 200.67,59.76 201.06,59.76 201.44,59.76 201.83,59.76 202.21,59.75 202.6,59.75 202.99,59.74 203.37,59.74 203.76,59.74 204.15,59.74 204.53,59.74 204.92,59.74 205.3,59.75 205.69,59.75 206.08,59.75 206.46,59.75 206.85,59.74 207.23,59.74 207.62,59.74 208.01,59.74 208.39,59.74 208.78,59.74 209.17,59.74 209.55,59.74 209.94,59.74 210.32,59.75 210.71,59.75 211.1,59.75 211.48,59.75 211.87,59.74 212.26,59.73 212.64,59.73 213.03,59.74 213.41,59.74 213.8,59.74 214.19,59.74 214.57,59.73 214.96,59.72 215.34,59.72 215.73,59.72 216.12,59.72 216.5,59.72 216.89,59.72 217.28,59.73 217.66,59.73 218.05,59.73 218.43,59.72 218.82,59.72 219.21,59.71 219.59,59.71 219.98,59.72 220.37,59.72 220.75,59.73 221.14,59.73 221.52,59.72 221.91,59.72 222.3,59.72 222.68,59.72 223.07,59.72 223.45,59.72 223.84,59.72 224.23,59.72 224.61,59.72 225,59.71 225.39,59.7 225.77,59.7 226.16,59.7 226.54,59.7 226.93,59.7 227.32,59.71 227.7,59.71 228.09,59.71 228.48,59.72 228.86,59.73 229.25,59.72 229.63,59.71 230.02,59.71 230.41,59.71 230.79,59.71 231.18,59.7 231.56,59.7 231.95,59.7 232.34,59.7 232.72,59.7 233.11,59.7 233.5,59.7 233.88,59.7 234.27,59.7 234.65,59.7 235.04,59.71 235.43,59.71 235.81,59.71 236.2,59.71 236.59,59.7 236.97,59.7 237.36,59.7 237.74,59.7 238.13,59.7 238.52,59.7 238.9,59.69 239.29,59.7 239.67,59.7 240.06,59.71 240.45,59.7 240.83,59.7 241.22,59.69 241.61,59.69 241.99,59.69 242.38,59.69 242.76,59.69 243.15,59.69 243.54,59.69 243.92,59.69 244.31,59.7 244.7,59.7 245.08,59.69 245.47,59.69 245.85,59.68 246.24,59.69 246.63,59.7 247.01,59.7 247.4,59.7 247.78,59.7 248.17,59.7 248.56,59.69 248.94,59.69 249.33,59.69 249.72,59.69 250.1,59.69 250.49,59.68 250.87,59.68 251.26,59.68 251.65,59.68 252.03,59.68 252.42,59.68 252.81,59.68 253.19,59.69 253.58,59.69 253.96,59.7 254.35,59.69 254.74,59.68 255.12,59.67 255.51,59.67 255.89,59.67 256.28,59.67 256.67,59.67 257.05,59.68 257.44,59.69 257.83,59.69 258.21,59.69 258.6,59.69 258.98,59.69 259.37,59.68 259.76,59.68 260.14,59.67 260.53,59.65 260.92,59.63 261.3,59.61 261.69,59.6 262.07,59.6" stroke-dasharray="none" stroke="rgb(31,120,180)" stroke-width="0.75" opacity="1" stroke-opacity="1" fill="none"/>
          </g>
          <g id="Fig:densplot_01.xyplot.lines.group.4.panel.1.1.1">
            <polyline id="Fig:densplot_01.xyplot.lines.group.4.panel.1.1.1.1" points="64.71,59.86 65.1,62.22 65.49,73.63 65.87,104.24 66.26,149.34 66.64,179.75 67.03,175.58 67.42,152.56 67.8,131.93 68.19,118.45 68.58,109.5 68.96,102.97 69.35,97.84 69.73,93.7 70.12,90.33 70.51,87.55 70.89,85.15 71.28,83.02 71.67,81.13 72.05,79.48 72.44,78.02 72.82,76.73 73.21,75.59 73.6,74.57 73.98,73.64 74.37,72.78 74.76,72.03 75.14,71.37 75.53,70.75 75.91,70.11 76.3,69.48 76.69,68.94 77.07,68.49 77.46,68.06 77.84,67.63 78.23,67.24 78.62,66.86 79,66.52 79.39,66.24 79.78,66 80.16,65.76 80.55,65.5 80.93,65.28 81.32,65.09 81.71,64.89 82.09,64.69 82.48,64.49 82.87,64.3 83.25,64.14 83.64,64 84.02,63.86 84.41,63.71 84.8,63.57 85.18,63.45 85.57,63.36 85.96,63.25 86.34,63.14 86.73,63.03 87.11,62.94 87.5,62.86 87.89,62.79 88.27,62.7 88.66,62.61 89.04,62.53 89.43,62.46 89.82,62.4 90.2,62.34 90.59,62.26 90.98,62.18 91.36,62.12 91.75,62.06 92.13,62.02 92.52,61.97 92.91,61.94 93.29,61.91 93.68,61.88 94.07,61.83 94.45,61.75 94.84,61.7 95.22,61.68 95.61,61.67 96,61.63 96.38,61.56 96.77,61.48 97.15,61.43 97.54,61.38 97.93,61.33 98.31,61.28 98.7,61.25 99.09,61.24 99.47,61.23 99.86,61.21 100.24,61.19 100.63,61.16 101.02,61.14 101.4,61.12 101.79,61.1 102.18,61.07 102.56,61.04 102.95,61.02 103.33,61.01 103.72,61 104.11,60.97 104.49,60.94 104.88,60.92 105.27,60.9 105.65,60.88 106.04,60.85 106.42,60.83 106.81,60.82 107.2,60.81 107.58,60.8 107.97,60.79 108.35,60.77 108.74,60.75 109.13,60.73 109.51,60.7 109.9,60.69 110.29,60.69 110.67,60.7 111.06,60.68 111.44,60.65 111.83,60.63 112.22,60.61 112.6,60.6 112.99,60.59 113.38,60.57 113.76,60.55 114.15,60.53 114.53,60.53 114.92,60.52 115.31,60.51 115.69,60.5 116.08,60.48 116.47,60.47 116.85,60.44 117.24,60.43 117.62,60.42 118.01,60.43 118.4,60.43 118.78,60.42 119.17,60.41 119.55,60.41 119.94,60.41 120.33,60.4 120.71,60.38 121.1,60.37 121.49,60.36 121.87,60.35 122.26,60.34 122.64,60.34 123.03,60.33 123.42,60.33 123.8,60.32 124.19,60.3 124.58,60.29 124.96,60.27 125.35,60.27 125.73,60.27 126.12,60.26 126.51,60.25 126.89,60.24 127.28,60.23 127.66,60.23 128.05,60.23 128.44,60.23 128.82,60.23 129.21,60.23 129.6,60.22 129.98,60.21 130.37,60.2 130.75,60.2 131.14,60.2 131.53,60.19 131.91,60.18 132.3,60.16 132.69,60.16 133.07,60.15 133.46,60.14 133.84,60.13 134.23,60.13 134.62,60.12 135,60.11 135.39,60.1 135.78,60.1 136.16,60.1 136.55,60.1 136.93,60.1 137.32,60.09 137.71,60.08 138.09,60.07 138.48,60.07 138.86,60.06 139.25,60.06 139.64,60.05 140.02,60.05 140.41,60.05 140.8,60.05 141.18,60.06 141.57,60.06 141.95,60.06 142.34,60.05 142.73,60.04 143.11,60.04 143.5,60.04 143.89,60.04 144.27,60.04 144.66,60.04 145.04,60.04 145.43,60.04 145.82,60.03 146.2,60.03 146.59,60.02 146.98,60.01 147.36,60 147.75,59.99 148.13,59.99 148.52,59.99 148.91,59.99 149.29,59.98 149.68,59.97 150.06,59.96 150.45,59.96 150.84,59.96 151.22,59.96 151.61,59.96 152,59.96 152.38,59.96 152.77,59.96 153.15,59.95 153.54,59.95 153.93,59.95 154.31,59.95 154.7,59.95 155.09,59.94 155.47,59.93 155.86,59.93 156.24,59.92 156.63,59.92 157.02,59.92 157.4,59.91 157.79,59.91 158.17,59.92 158.56,59.93 158.95,59.93 159.33,59.93 159.72,59.93 160.11,59.91 160.49,59.91 160.88,59.92 161.26,59.93 161.65,59.92 162.04,59.92 162.42,59.9 162.81,59.9 163.2,59.9 163.58,59.9 163.97,59.9 164.35,59.9 164.74,59.9 165.13,59.9 165.51,59.89 165.9,59.89 166.29,59.89 166.67,59.89 167.06,59.88 167.44,59.87 167.83,59.87 168.22,59.87 168.6,59.87 168.99,59.87 169.37,59.87 169.76,59.87 170.15,59.86 170.53,59.85 170.92,59.85 171.31,59.85 171.69,59.85 172.08,59.85 172.46,59.86 172.85,59.86 173.24,59.86 173.62,59.86 174.01,59.86 174.4,59.85 174.78,59.85 175.17,59.84 175.55,59.84 175.94,59.84 176.33,59.84 176.71,59.84 177.1,59.83 177.48,59.83 177.87,59.83 178.26,59.83 178.64,59.83 179.03,59.83 179.42,59.83 179.8,59.82 180.19,59.82 180.57,59.81 180.96,59.81 181.35,59.82 181.73,59.81 182.12,59.81 182.51,59.81 182.89,59.81 183.28,59.8 183.66,59.8 184.05,59.81 184.44,59.81 184.82,59.81 185.21,59.81 185.6,59.81 185.98,59.81 186.37,59.81 186.75,59.81 187.14,59.81 187.53,59.81 187.91,59.8 188.3,59.79 188.68,59.79 189.07,59.79 189.46,59.79 189.84,59.79 190.23,59.79 190.62,59.79 191,59.79 191.39,59.79 191.77,59.79 192.16,59.79 192.55,59.79 192.93,59.79 193.32,59.79 193.71,59.79 194.09,59.8 194.48,59.8 194.86,59.8 195.25,59.79 195.64,59.79 196.02,59.79 196.41,59.78 196.8,59.78 197.18,59.77 197.57,59.77 197.95,59.77 198.34,59.78 198.73,59.78 199.11,59.78 199.5,59.77 199.88,59.76 200.27,59.75 200.66,59.75 201.04,59.76 201.43,59.76 201.82,59.77 202.2,59.77 202.59,59.77 202.97,59.76 203.36,59.76 203.75,59.76 204.13,59.76 204.52,59.76 204.91,59.76 205.29,59.77 205.68,59.77 206.06,59.76 206.45,59.76 206.84,59.75 207.22,59.75 207.61,59.75 207.99,59.75 208.38,59.75 208.77,59.75 209.15,59.75 209.54,59.75 209.93,59.75 210.31,59.75 210.7,59.74 211.08,59.75 211.47,59.75 211.86,59.75 212.24,59.75 212.63,59.75 213.02,59.75 213.4,59.75 213.79,59.74 214.17,59.74 214.56,59.74 214.95,59.74 215.33,59.75 215.72,59.75 216.11,59.76 216.49,59.75 216.88,59.75 217.26,59.74 217.65,59.74 218.04,59.75 218.42,59.75 218.81,59.75 219.19,59.75 219.58,59.75 219.97,59.75 220.35,59.75 220.74,59.74 221.13,59.74 221.51,59.74 221.9,59.74 222.28,59.74 222.67,59.74 223.06,59.74 223.44,59.73 223.83,59.73 224.22,59.73 224.6,59.74 224.99,59.75 225.37,59.75 225.76,59.75 226.15,59.74 226.53,59.73 226.92,59.72 227.31,59.72 227.69,59.71 228.08,59.72 228.46,59.72 228.85,59.72 229.24,59.72 229.62,59.72 230.01,59.71 230.39,59.71 230.78,59.72 231.17,59.72 231.55,59.73 231.94,59.73 232.33,59.73 232.71,59.72 233.1,59.72 233.48,59.72 233.87,59.72 234.26,59.72 234.64,59.72 235.03,59.72 235.42,59.72 235.8,59.73 236.19,59.73 236.57,59.73 236.96,59.73 237.35,59.72 237.73,59.72 238.12,59.71 238.5,59.71 238.89,59.71 239.28,59.71 239.66,59.71 240.05,59.7 240.44,59.7 240.82,59.7 241.21,59.71 241.59,59.71 241.98,59.71 242.37,59.71 242.75,59.71 243.14,59.71 243.53,59.71 243.91,59.7 244.3,59.69 244.68,59.7 245.07,59.7 245.46,59.7 245.84,59.7 246.23,59.71 246.62,59.71 247,59.71 247.39,59.71 247.77,59.7 248.16,59.7 248.55,59.7 248.93,59.7 249.32,59.7 249.7,59.7 250.09,59.7 250.48,59.7 250.86,59.7 251.25,59.7 251.64,59.7 252.02,59.7 252.41,59.7 252.79,59.7 253.18,59.7 253.57,59.7 253.95,59.7 254.34,59.71 254.73,59.72 255.11,59.71 255.5,59.7 255.88,59.7 256.27,59.7 256.66,59.7 257.04,59.7 257.43,59.7 257.82,59.7 258.2,59.69 258.59,59.69 258.97,59.69 259.36,59.69 259.75,59.69 260.13,59.69 260.52,59.67 260.9,59.64 261.29,59.61 261.68,59.6 262.06,59.6" stroke-dasharray="none" stroke="rgb(31,120,180)" stroke-width="0.75" opacity="1" stroke-opacity="1" fill="none"/>
          </g>
          <g id="Fig:densplot_01.xyplot.lines.group.5.panel.1.1.1">
            <polyline id="Fig:densplot_01.xyplot.lines.group.5.panel.1.1.1.1" points="65,60.07 65.38,65.51 65.77,93.3 66.15,154.4 66.54,206.9 66.92,203.5 67.31,169.79 67.69,141.65 68.08,124.17 68.46,112.76 68.85,104.71 69.23,98.75 69.62,94.06 70,90.19 70.39,86.96 70.77,84.31 71.16,82 71.54,79.94 71.93,78.21 72.31,76.76 72.7,75.51 73.08,74.36 73.47,73.3 73.86,72.33 74.24,71.48 74.63,70.76 75.01,70.07 75.4,69.4 75.78,68.81 76.17,68.28 76.55,67.83 76.94,67.43 77.32,67.06 77.71,66.67 78.09,66.28 78.48,65.94 78.86,65.65 79.25,65.4 79.63,65.19 80.02,65.01 80.4,64.79 80.79,64.57 81.17,64.33 81.56,64.16 81.94,64.04 82.33,63.91 82.71,63.77 83.1,63.62 83.48,63.46 83.87,63.27 84.25,63.11 84.64,63.01 85.02,62.92 85.41,62.82 85.79,62.75 86.18,62.7 86.56,62.64 86.95,62.53 87.33,62.42 87.72,62.32 88.1,62.23 88.49,62.16 88.87,62.13 89.26,62.1 89.64,62.04 90.03,61.96 90.41,61.91 90.8,61.85 91.18,61.78 91.57,61.73 91.95,61.69 92.34,61.65 92.72,61.6 93.11,61.55 93.49,61.51 93.88,61.47 94.26,61.42 94.65,61.36 95.04,61.33 95.42,61.31 95.81,61.31 96.19,61.31 96.58,61.28 96.96,61.23 97.35,61.17 97.73,61.14 98.12,61.13 98.5,61.09 98.89,61.06 99.27,61.03 99.66,60.99 100.04,60.97 100.43,60.96 100.81,60.94 101.2,60.91 101.58,60.9 101.97,60.9 102.35,60.87 102.74,60.82 103.12,60.79 103.51,60.78 103.89,60.76 104.28,60.74 104.66,60.71 105.05,60.7 105.43,60.69 105.82,60.67 106.2,60.65 106.59,60.64 106.97,60.62 107.36,60.59 107.74,60.58 108.13,60.58 108.51,60.58 108.9,60.58 109.28,60.56 109.67,60.53 110.05,60.51 110.44,60.52 110.82,60.51 111.21,60.48 111.59,60.47 111.98,60.44 112.36,60.43 112.75,60.42 113.13,60.42 113.52,60.39 113.9,60.37 114.29,60.38 114.67,60.39 115.06,60.39 115.44,60.37 115.83,60.36 116.22,60.35 116.6,60.34 116.99,60.34 117.37,60.33 117.76,60.31 118.14,60.29 118.53,60.28 118.91,60.28 119.3,60.28 119.68,60.28 120.07,60.27 120.45,60.26 120.84,60.25 121.22,60.25 121.61,60.24 121.99,60.22 122.38,60.2 122.76,60.18 123.15,60.16 123.53,60.16 123.92,60.17 124.3,60.17 124.69,60.17 125.07,60.17 125.46,60.16 125.84,60.15 126.23,60.14 126.61,60.14 127,60.14 127.38,60.14 127.77,60.13 128.15,60.13 128.54,60.12 128.92,60.12 129.31,60.12 129.69,60.12 130.08,60.11 130.46,60.09 130.85,60.08 131.23,60.07 131.62,60.06 132,60.06 132.39,60.05 132.77,60.06 133.16,60.06 133.54,60.05 133.93,60.04 134.31,60.05 134.7,60.05 135.08,60.04 135.47,60.03 135.85,60.03 136.24,60.03 136.62,60.02 137.01,60.02 137.4,60.03 137.78,60.03 138.17,60.02 138.55,60.01 138.94,60 139.32,59.99 139.71,59.98 140.09,59.98 140.48,59.99 140.86,60 141.25,60 141.63,59.99 142.02,59.98 142.4,59.96 142.79,59.95 143.17,59.95 143.56,59.96 143.94,59.96 144.33,59.95 144.71,59.95 145.1,59.95 145.48,59.94 145.87,59.93 146.25,59.93 146.64,59.92 147.02,59.93 147.41,59.93 147.79,59.92 148.18,59.92 148.56,59.93 148.95,59.93 149.33,59.93 149.72,59.92 150.1,59.91 150.49,59.91 150.87,59.92 151.26,59.91 151.64,59.91 152.03,59.9 152.41,59.89 152.8,59.89 153.18,59.89 153.57,59.88 153.95,59.87 154.34,59.87 154.72,59.88 155.11,59.88 155.49,59.88 155.88,59.88 156.26,59.88 156.65,59.87 157.03,59.87 157.42,59.87 157.8,59.86 158.19,59.86 158.57,59.86 158.96,59.86 159.35,59.85 159.73,59.85 160.12,59.86 160.5,59.85 160.89,59.85 161.27,59.85 161.66,59.84 162.04,59.84 162.43,59.84 162.81,59.84 163.2,59.85 163.58,59.85 163.97,59.85 164.35,59.84 164.74,59.84 165.12,59.83 165.51,59.83 165.89,59.83 166.28,59.83 166.66,59.83 167.05,59.84 167.43,59.83 167.82,59.82 168.2,59.82 168.59,59.82 168.97,59.82 169.36,59.82 169.74,59.82 170.13,59.81 170.51,59.81 170.9,59.81 171.28,59.81 171.67,59.82 172.05,59.82 172.44,59.81 172.82,59.79 173.21,59.79 173.59,59.79 173.98,59.8 174.36,59.8 174.75,59.8 175.13,59.8 175.52,59.8 175.9,59.8 176.29,59.8 176.67,59.8 177.06,59.8 177.44,59.8 177.83,59.79 178.21,59.78 178.6,59.79 178.98,59.79 179.37,59.79 179.75,59.78 180.14,59.78 180.53,59.77 180.91,59.77 181.3,59.77 181.68,59.77 182.07,59.78 182.45,59.79 182.84,59.79 183.22,59.79 183.61,59.78 183.99,59.78 184.38,59.77 184.76,59.77 185.15,59.77 185.53,59.77 185.92,59.76 186.3,59.76 186.69,59.76 187.07,59.76 187.46,59.76 187.84,59.76 188.23,59.77 188.61,59.78 189,59.77 189.38,59.76 189.77,59.75 190.15,59.75 190.54,59.74 190.92,59.75 191.31,59.75 191.69,59.75 192.08,59.76 192.46,59.76 192.85,59.75 193.23,59.76 193.62,59.76 194,59.76 194.39,59.75 194.77,59.75 195.16,59.75 195.54,59.76 195.93,59.76 196.31,59.77 196.7,59.76 197.08,59.75 197.47,59.75 197.85,59.75 198.24,59.75 198.62,59.74 199.01,59.74 199.39,59.74 199.78,59.75 200.16,59.75 200.55,59.74 200.93,59.74 201.32,59.74 201.71,59.73 202.09,59.73 202.48,59.73 202.86,59.73 203.25,59.73 203.63,59.73 204.02,59.72 204.4,59.72 204.79,59.73 205.17,59.73 205.56,59.73 205.94,59.73 206.33,59.73 206.71,59.73 207.1,59.73 207.48,59.72 207.87,59.72 208.25,59.72 208.64,59.74 209.02,59.74 209.41,59.74 209.79,59.73 210.18,59.73 210.56,59.73 210.95,59.73 211.33,59.73 211.72,59.72 212.1,59.72 212.49,59.72 212.87,59.72 213.26,59.72 213.64,59.72 214.03,59.72 214.41,59.72 214.8,59.73 215.18,59.73 215.57,59.72 215.95,59.72 216.34,59.72 216.72,59.72 217.11,59.72 217.49,59.72 217.88,59.71 218.26,59.71 218.65,59.71 219.03,59.71 219.42,59.71 219.8,59.72 220.19,59.72 220.57,59.73 220.96,59.73 221.34,59.73 221.73,59.72 222.11,59.72 222.5,59.72 222.89,59.72 223.27,59.72 223.66,59.72 224.04,59.72 224.43,59.73 224.81,59.72 225.2,59.72 225.58,59.71 225.97,59.71 226.35,59.72 226.74,59.72 227.12,59.71 227.51,59.7 227.89,59.71 228.28,59.71 228.66,59.71 229.05,59.71 229.43,59.7 229.82,59.7 230.2,59.7 230.59,59.7 230.97,59.71 231.36,59.71 231.74,59.71 232.13,59.71 232.51,59.7 232.9,59.69 233.28,59.7 233.67,59.7 234.05,59.7 234.44,59.7 234.82,59.7 235.21,59.71 235.59,59.71 235.98,59.71 236.36,59.71 236.75,59.71 237.13,59.71 237.52,59.7 237.9,59.69 238.29,59.69 238.67,59.69 239.06,59.7 239.44,59.7 239.83,59.7 240.21,59.69 240.6,59.69 240.98,59.69 241.37,59.7 241.75,59.69 242.14,59.7 242.52,59.7 242.91,59.7 243.29,59.69 243.68,59.69 244.07,59.69 244.45,59.69 244.84,59.69 245.22,59.69 245.61,59.68 245.99,59.68 246.38,59.68 246.76,59.68 247.15,59.68 247.53,59.68 247.92,59.69 248.3,59.69 248.69,59.69 249.07,59.68 249.46,59.68 249.84,59.68 250.23,59.68 250.61,59.68 251,59.68 251.38,59.68 251.77,59.68 252.15,59.68 252.54,59.68 252.92,59.67 253.31,59.67 253.69,59.67 254.08,59.68 254.46,59.68 254.85,59.69 255.23,59.68 255.62,59.68 256,59.68 256.39,59.68 256.77,59.69 257.16,59.69 257.54,59.69 257.93,59.68 258.31,59.68 258.7,59.69 259.08,59.69 259.47,59.68 259.85,59.67 260.24,59.67 260.62,59.65 261.01,59.63 261.39,59.6 261.78,59.6" stroke-dasharray="none" stroke="rgb(31,120,180)" stroke-width="0.75" opacity="1" stroke-opacity="1" fill="none"/>
          </g>
          <g id="Fig:densplot_01.xyplot.lines.group.6.panel.1.1.1">
            <polyline id="Fig:densplot_01.xyplot.lines.group.6.panel.1.1.1.1" points="65.12,59.8 65.5,63.44 65.89,94.7 66.27,173.32 66.66,219.61 67.04,198.55 67.43,163.59 67.81,139.41 68.2,124.09 68.58,113.84 68.96,106.45 69.35,100.51 69.73,95.63 70.12,91.68 70.5,88.34 70.89,85.47 71.27,83.06 71.66,80.94 72.04,79.04 72.43,77.47 72.81,76.05 73.2,74.8 73.58,73.7 73.96,72.63 74.35,71.66 74.73,70.75 75.12,69.97 75.5,69.3 75.89,68.72 76.27,68.2 76.66,67.71 77.04,67.27 77.43,66.88 77.81,66.54 78.2,66.19 78.58,65.86 78.96,65.6 79.35,65.38 79.73,65.13 80.12,64.87 80.5,64.63 80.89,64.36 81.27,64.12 81.66,63.93 82.04,63.75 82.43,63.62 82.81,63.51 83.2,63.38 83.58,63.22 83.96,63.07 84.35,62.92 84.73,62.79 85.12,62.71 85.5,62.63 85.89,62.52 86.27,62.43 86.66,62.38 87.04,62.33 87.43,62.24 87.81,62.12 88.2,62.05 88.58,62.02 88.96,61.97 89.35,61.89 89.73,61.83 90.12,61.8 90.5,61.74 90.89,61.68 91.27,61.63 91.66,61.6 92.04,61.57 92.43,61.51 92.81,61.44 93.2,61.4 93.58,61.33 93.97,61.27 94.35,61.27 94.73,61.25 95.12,61.23 95.5,61.19 95.89,61.13 96.27,61.07 96.66,61.04 97.04,61.01 97.43,60.98 97.81,60.94 98.2,60.92 98.58,60.9 98.97,60.9 99.35,60.87 99.73,60.82 100.12,60.81 100.5,60.82 100.89,60.82 101.27,60.79 101.66,60.77 102.04,60.74 102.43,60.71 102.81,60.69 103.2,60.68 103.58,60.64 103.97,60.62 104.35,60.63 104.73,60.61 105.12,60.59 105.5,60.59 105.89,60.57 106.27,60.54 106.66,60.51 107.04,60.48 107.43,60.47 107.81,60.47 108.2,60.47 108.58,60.49 108.97,60.48 109.35,60.44 109.73,60.41 110.12,60.41 110.5,60.41 110.89,60.39 111.27,60.36 111.66,60.33 112.04,60.31 112.43,60.32 112.81,60.34 113.2,60.34 113.58,60.34 113.97,60.32 114.35,60.3 114.73,60.29 115.12,60.26 115.5,60.23 115.89,60.22 116.27,60.24 116.66,60.24 117.04,60.23 117.43,60.21 117.81,60.2 118.2,60.2 118.58,60.2 118.97,60.19 119.35,60.19 119.73,60.19 120.12,60.19 120.5,60.18 120.89,60.16 121.27,60.15 121.66,60.15 122.04,60.15 122.43,60.14 122.81,60.13 123.2,60.11 123.58,60.1 123.97,60.11 124.35,60.1 124.73,60.09 125.12,60.07 125.5,60.08 125.89,60.1 126.27,60.11 126.66,60.09 127.04,60.06 127.43,60.04 127.81,60.04 128.2,60.05 128.58,60.04 128.97,60.02 129.35,60.01 129.73,60.02 130.12,60.02 130.5,60.02 130.89,60.02 131.27,60.03 131.66,60.02 132.04,60 132.43,60 132.81,60.01 133.2,60 133.58,60 133.97,60 134.35,59.99 134.73,59.97 135.12,59.97 135.5,59.97 135.89,59.97 136.27,59.96 136.66,59.96 137.04,59.96 137.43,59.96 137.81,59.95 138.2,59.94 138.58,59.94 138.97,59.94 139.35,59.93 139.73,59.93 140.12,59.94 140.5,59.93 140.89,59.92 141.27,59.91 141.66,59.91 142.04,59.91 142.43,59.91 142.81,59.9 143.2,59.89 143.58,59.89 143.97,59.89 144.35,59.89 144.73,59.88 145.12,59.88 145.5,59.88 145.89,59.88 146.27,59.89 146.66,59.89 147.04,59.89 147.43,59.89 147.81,59.88 148.2,59.87 148.58,59.87 148.97,59.86 149.35,59.86 149.73,59.86 150.12,59.85 150.5,59.85 150.89,59.85 151.27,59.85 151.66,59.85 152.04,59.86 152.43,59.86 152.81,59.85 153.2,59.84 153.58,59.84 153.97,59.85 154.35,59.84 154.73,59.83 155.12,59.82 155.5,59.82 155.89,59.83 156.27,59.84 156.66,59.85 157.04,59.85 157.43,59.83 157.81,59.82 158.2,59.81 158.58,59.82 158.97,59.82 159.35,59.81 159.73,59.8 160.12,59.8 160.5,59.8 160.89,59.81 161.27,59.82 161.66,59.82 162.04,59.82 162.43,59.81 162.81,59.79 163.2,59.8 163.58,59.8 163.97,59.8 164.35,59.81 164.73,59.81 165.12,59.79 165.5,59.79 165.89,59.79 166.27,59.79 166.66,59.79 167.04,59.79 167.43,59.79 167.81,59.79 168.2,59.79 168.58,59.79 168.97,59.79 169.35,59.79 169.73,59.79 170.12,59.79 170.5,59.78 170.89,59.78 171.27,59.78 171.66,59.78 172.04,59.78 172.43,59.77 172.81,59.77 173.2,59.77 173.58,59.76 173.97,59.76 174.35,59.77 174.73,59.77 175.12,59.76 175.5,59.75 175.89,59.76 176.27,59.76 176.66,59.77 177.04,59.77 177.43,59.76 177.81,59.76 178.2,59.76 178.58,59.77 178.97,59.76 179.35,59.76 179.73,59.76 180.12,59.76 180.5,59.77 180.89,59.76 181.27,59.75 181.66,59.75 182.04,59.75 182.43,59.75 182.81,59.74 183.2,59.74 183.58,59.74 183.97,59.74 184.35,59.74 184.73,59.73 185.12,59.73 185.5,59.74 185.89,59.74 186.27,59.74 186.66,59.74 187.04,59.74 187.43,59.75 187.81,59.75 188.2,59.75 188.58,59.74 188.97,59.72 189.35,59.72 189.73,59.72 190.12,59.73 190.5,59.73 190.89,59.73 191.27,59.74 191.66,59.73 192.04,59.73 192.43,59.73 192.81,59.74 193.2,59.75 193.58,59.74 193.97,59.73 194.35,59.73 194.73,59.73 195.12,59.73 195.5,59.72 195.89,59.73 196.27,59.73 196.66,59.72 197.04,59.72 197.43,59.72 197.81,59.72 198.2,59.71 198.58,59.7 198.97,59.71 199.35,59.71 199.74,59.72 200.12,59.72 200.5,59.72 200.89,59.71 201.27,59.71 201.66,59.71 202.04,59.72 202.43,59.72 202.81,59.71 203.2,59.71 203.58,59.71 203.97,59.71 204.35,59.71 204.74,59.7 205.12,59.7 205.5,59.71 205.89,59.71 206.27,59.71 206.66,59.71 207.04,59.71 207.43,59.7 207.81,59.7 208.2,59.7 208.58,59.7 208.97,59.7 209.35,59.7 209.74,59.71 210.12,59.7 210.5,59.7 210.89,59.69 211.27,59.69 211.66,59.7 212.04,59.7 212.43,59.7 212.81,59.7 213.2,59.7 213.58,59.69 213.97,59.69 214.35,59.69 214.74,59.69 215.12,59.69 215.5,59.69 215.89,59.69 216.27,59.69 216.66,59.69 217.04,59.7 217.43,59.7 217.81,59.7 218.2,59.7 218.58,59.71 218.97,59.7 219.35,59.69 219.74,59.69 220.12,59.7 220.5,59.69 220.89,59.69 221.27,59.68 221.66,59.68 222.04,59.67 222.43,59.68 222.81,59.68 223.2,59.68 223.58,59.69 223.97,59.69 224.35,59.7 224.74,59.7 225.12,59.7 225.5,59.7 225.89,59.69 226.27,59.69 226.66,59.68 227.04,59.68 227.43,59.69 227.81,59.69 228.2,59.69 228.58,59.69 228.97,59.69 229.35,59.69 229.74,59.69 230.12,59.68 230.5,59.68 230.89,59.68 231.27,59.68 231.66,59.68 232.04,59.68 232.43,59.68 232.81,59.68 233.2,59.68 233.58,59.68 233.97,59.68 234.35,59.68 234.74,59.68 235.12,59.68 235.5,59.68 235.89,59.68 236.27,59.68 236.66,59.67 237.04,59.68 237.43,59.68 237.81,59.69 238.2,59.68 238.58,59.68 238.97,59.68 239.35,59.68 239.74,59.67 240.12,59.67 240.5,59.67 240.89,59.67 241.27,59.67 241.66,59.67 242.04,59.67 242.43,59.67 242.81,59.67 243.2,59.68 243.58,59.68 243.97,59.68 244.35,59.68 244.74,59.68 245.12,59.68 245.5,59.68 245.89,59.68 246.27,59.69 246.66,59.68 247.04,59.68 247.43,59.67 247.81,59.68 248.2,59.68 248.58,59.68 248.97,59.67 249.35,59.67 249.74,59.67 250.12,59.66 250.5,59.67 250.89,59.67 251.27,59.67 251.66,59.68 252.04,59.69 252.43,59.68 252.81,59.67 253.2,59.67 253.58,59.68 253.97,59.68 254.35,59.67 254.74,59.67 255.12,59.67 255.5,59.67 255.89,59.67 256.27,59.67 256.66,59.67 257.04,59.67 257.43,59.67 257.81,59.68 258.2,59.68 258.58,59.67 258.97,59.67 259.35,59.67 259.74,59.67 260.12,59.68 260.5,59.66 260.89,59.62 261.27,59.6 261.66,59.6" stroke-dasharray="none" stroke="rgb(31,120,180)" stroke-width="0.75" opacity="1" stroke-opacity="1" fill="none"/>
          </g>
          <g id="Fig:densplot_01.xyplot.lines.group.7.panel.1.1.1">
            <polyline id="Fig:densplot_01.xyplot.lines.group.7.panel.1.1.1.1" points="64.63,59.7 65.02,60.74 65.4,66.59 65.79,84.87 66.18,116.95 66.56,148.32 66.95,162.11 67.34,157.2 67.72,143.78 68.11,130.16 68.5,119.05 68.88,110.37 69.27,103.52 69.66,98.03 70.04,93.64 70.43,90.12 70.82,87.28 71.2,84.88 71.59,82.8 71.98,80.96 72.36,79.36 72.75,77.95 73.14,76.65 73.52,75.41 73.91,74.27 74.3,73.28 74.68,72.43 75.07,71.69 75.46,71.01 75.84,70.39 76.23,69.82 76.62,69.3 77,68.82 77.39,68.38 77.78,67.96 78.16,67.59 78.55,67.22 78.94,66.87 79.32,66.57 79.71,66.28 80.09,66 80.48,65.72 80.87,65.47 81.25,65.24 81.64,65.01 82.03,64.79 82.41,64.6 82.8,64.45 83.19,64.31 83.57,64.15 83.96,63.97 84.35,63.82 84.73,63.7 85.12,63.6 85.51,63.51 85.89,63.42 86.28,63.3 86.67,63.17 87.05,63.05 87.44,62.95 87.83,62.87 88.21,62.8 88.6,62.75 88.99,62.71 89.37,62.64 89.76,62.55 90.15,62.45 90.53,62.37 90.92,62.31 91.31,62.26 91.69,62.21 92.08,62.15 92.47,62.08 92.85,62 93.24,61.92 93.62,61.87 94.01,61.83 94.4,61.8 94.78,61.77 95.17,61.75 95.56,61.72 95.94,61.68 96.33,61.64 96.72,61.6 97.1,61.56 97.49,61.51 97.88,61.47 98.26,61.43 98.65,61.41 99.04,61.39 99.42,61.37 99.81,61.34 100.2,61.3 100.58,61.27 100.97,61.26 101.36,61.25 101.74,61.23 102.13,61.2 102.52,61.15 102.9,61.12 103.29,61.09 103.68,61.06 104.06,61.03 104.45,61 104.84,61 105.22,60.99 105.61,60.97 106,60.95 106.38,60.93 106.77,60.91 107.16,60.9 107.54,60.88 107.93,60.87 108.31,60.87 108.7,60.86 109.09,60.84 109.47,60.83 109.86,60.8 110.25,60.77 110.63,60.74 111.02,60.71 111.41,60.69 111.79,60.68 112.18,60.68 112.57,60.67 112.95,60.67 113.34,60.66 113.73,60.65 114.11,60.64 114.5,60.63 114.89,60.63 115.27,60.61 115.66,60.6 116.05,60.58 116.43,60.58 116.82,60.56 117.21,60.54 117.59,60.51 117.98,60.49 118.37,60.47 118.75,60.47 119.14,60.47 119.53,60.47 119.91,60.46 120.3,60.46 120.69,60.45 121.07,60.44 121.46,60.44 121.84,60.44 122.23,60.43 122.62,60.41 123,60.39 123.39,60.37 123.78,60.37 124.16,60.37 124.55,60.37 124.94,60.36 125.32,60.34 125.71,60.33 126.1,60.33 126.48,60.33 126.87,60.33 127.26,60.32 127.64,60.3 128.03,60.29 128.42,60.29 128.8,60.3 129.19,60.29 129.58,60.28 129.96,60.27 130.35,60.26 130.74,60.26 131.12,60.26 131.51,60.25 131.9,60.25 132.28,60.24 132.67,60.22 133.06,60.21 133.44,60.2 133.83,60.2 134.22,60.2 134.6,60.2 134.99,60.2 135.38,60.2 135.76,60.2 136.15,60.19 136.53,60.19 136.92,60.17 137.31,60.16 137.69,60.16 138.08,60.16 138.47,60.16 138.85,60.16 139.24,60.16 139.63,60.15 140.01,60.15 140.4,60.14 140.79,60.13 141.17,60.12 141.56,60.11 141.95,60.11 142.33,60.11 142.72,60.1 143.11,60.11 143.49,60.11 143.88,60.1 144.27,60.09 144.65,60.08 145.04,60.07 145.43,60.07 145.81,60.07 146.2,60.06 146.59,60.06 146.97,60.06 147.36,60.06 147.75,60.06 148.13,60.05 148.52,60.04 148.91,60.03 149.29,60.03 149.68,60.03 150.07,60.04 150.45,60.04 150.84,60.04 151.22,60.03 151.61,60.03 152,60.02 152.38,60.01 152.77,60.01 153.16,60.01 153.54,60 153.93,60 154.32,60 154.7,60 155.09,59.99 155.48,59.99 155.86,59.99 156.25,59.99 156.64,59.99 157.02,59.99 157.41,59.99 157.8,59.99 158.18,59.99 158.57,59.99 158.96,59.98 159.34,59.98 159.73,59.98 160.12,59.97 160.5,59.97 160.89,59.97 161.28,59.97 161.66,59.96 162.05,59.96 162.44,59.96 162.82,59.95 163.21,59.95 163.6,59.95 163.98,59.95 164.37,59.94 164.75,59.94 165.14,59.94 165.53,59.94 165.91,59.95 166.3,59.94 166.69,59.94 167.07,59.94 167.46,59.93 167.85,59.92 168.23,59.92 168.62,59.92 169.01,59.92 169.39,59.91 169.78,59.91 170.17,59.91 170.55,59.92 170.94,59.93 171.33,59.93 171.71,59.92 172.1,59.92 172.49,59.92 172.87,59.92 173.26,59.91 173.65,59.9 174.03,59.89 174.42,59.89 174.81,59.89 175.19,59.89 175.58,59.88 175.97,59.88 176.35,59.87 176.74,59.87 177.13,59.87 177.51,59.88 177.9,59.88 178.29,59.88 178.67,59.87 179.06,59.87 179.44,59.87 179.83,59.88 180.22,59.89 180.6,59.89 180.99,59.88 181.38,59.87 181.76,59.86 182.15,59.86 182.54,59.85 182.92,59.85 183.31,59.85 183.7,59.86 184.08,59.86 184.47,59.86 184.86,59.86 185.24,59.85 185.63,59.85 186.02,59.86 186.4,59.86 186.79,59.85 187.18,59.85 187.56,59.84 187.95,59.84 188.34,59.85 188.72,59.85 189.11,59.84 189.5,59.84 189.88,59.83 190.27,59.82 190.66,59.82 191.04,59.83 191.43,59.83 191.82,59.83 192.2,59.83 192.59,59.83 192.98,59.83 193.36,59.82 193.75,59.82 194.13,59.81 194.52,59.81 194.91,59.8 195.29,59.8 195.68,59.8 196.07,59.81 196.45,59.81 196.84,59.82 197.23,59.81 197.61,59.81 198,59.8 198.39,59.8 198.77,59.81 199.16,59.81 199.55,59.81 199.93,59.81 200.32,59.81 200.71,59.81 201.09,59.81 201.48,59.8 201.87,59.79 202.25,59.79 202.64,59.79 203.03,59.79 203.41,59.79 203.8,59.79 204.19,59.79 204.57,59.79 204.96,59.8 205.35,59.8 205.73,59.8 206.12,59.79 206.51,59.78 206.89,59.78 207.28,59.78 207.66,59.78 208.05,59.79 208.44,59.79 208.82,59.79 209.21,59.78 209.6,59.78 209.98,59.78 210.37,59.78 210.76,59.79 211.14,59.78 211.53,59.78 211.92,59.78 212.3,59.77 212.69,59.77 213.08,59.77 213.46,59.77 213.85,59.76 214.24,59.76 214.62,59.76 215.01,59.76 215.4,59.76 215.78,59.76 216.17,59.76 216.56,59.76 216.94,59.76 217.33,59.76 217.72,59.76 218.1,59.76 218.49,59.77 218.88,59.77 219.26,59.76 219.65,59.76 220.04,59.76 220.42,59.76 220.81,59.75 221.2,59.75 221.58,59.75 221.97,59.75 222.35,59.75 222.74,59.75 223.13,59.76 223.51,59.75 223.9,59.75 224.29,59.75 224.67,59.75 225.06,59.76 225.45,59.76 225.83,59.76 226.22,59.75 226.61,59.75 226.99,59.74 227.38,59.74 227.77,59.74 228.15,59.74 228.54,59.74 228.93,59.74 229.31,59.74 229.7,59.74 230.09,59.74 230.47,59.74 230.86,59.73 231.25,59.74 231.63,59.74 232.02,59.75 232.41,59.75 232.79,59.75 233.18,59.74 233.57,59.74 233.95,59.74 234.34,59.74 234.73,59.73 235.11,59.73 235.5,59.73 235.88,59.73 236.27,59.73 236.66,59.73 237.04,59.73 237.43,59.73 237.82,59.73 238.2,59.73 238.59,59.73 238.98,59.73 239.36,59.73 239.75,59.73 240.14,59.74 240.52,59.74 240.91,59.73 241.3,59.72 241.68,59.72 242.07,59.73 242.46,59.72 242.84,59.72 243.23,59.72 243.62,59.72 244,59.73 244.39,59.73 244.78,59.73 245.16,59.73 245.55,59.73 245.94,59.72 246.32,59.71 246.71,59.71 247.1,59.72 247.48,59.72 247.87,59.72 248.26,59.72 248.64,59.73 249.03,59.73 249.42,59.73 249.8,59.72 250.19,59.72 250.57,59.72 250.96,59.71 251.35,59.71 251.73,59.71 252.12,59.71 252.51,59.71 252.89,59.72 253.28,59.72 253.67,59.72 254.05,59.71 254.44,59.71 254.83,59.71 255.21,59.71 255.6,59.71 255.99,59.71 256.37,59.71 256.76,59.7 257.15,59.7 257.53,59.7 257.92,59.7 258.31,59.71 258.69,59.71 259.08,59.71 259.47,59.7 259.85,59.7 260.24,59.68 260.63,59.66 261.01,59.63 261.4,59.61 261.79,59.6 262.17,59.6" stroke-dasharray="none" stroke="rgb(31,120,180)" stroke-width="0.75" opacity="1" stroke-opacity="1" fill="none"/>
          </g>
          <g id="Fig:densplot_01.xyplot.lines.group.8.panel.1.1.1">
            <polyline id="Fig:densplot_01.xyplot.lines.group.8.panel.1.1.1.1" points="64.97,59.93 65.35,64.35 65.74,89.02 66.12,143.84 66.51,193.1 66.89,198.97 67.28,173.54 67.66,145.99 68.05,126.74 68.44,114.14 68.82,105.59 69.21,99.43 69.59,94.63 69.98,90.74 70.36,87.52 70.75,84.82 71.13,82.54 71.52,80.54 71.9,78.8 72.29,77.28 72.67,75.88 73.06,74.61 73.44,73.54 73.83,72.62 74.21,71.76 74.6,70.95 74.98,70.22 75.37,69.6 75.76,69.06 76.14,68.53 76.53,68.04 76.91,67.62 77.3,67.22 77.68,66.85 78.07,66.5 78.45,66.17 78.84,65.87 79.22,65.6 79.61,65.33 79.99,65.09 80.38,64.87 80.76,64.67 81.15,64.46 81.53,64.24 81.92,64.03 82.3,63.9 82.69,63.8 83.08,63.65 83.46,63.48 83.85,63.37 84.23,63.27 84.62,63.15 85,63.02 85.39,62.93 85.77,62.85 86.16,62.76 86.54,62.67 86.93,62.58 87.31,62.48 87.7,62.37 88.08,62.28 88.47,62.21 88.85,62.17 89.24,62.12 89.62,62.04 90.01,61.96 90.4,61.92 90.78,61.89 91.17,61.81 91.55,61.73 91.94,61.67 92.32,61.65 92.71,61.61 93.09,61.54 93.48,61.47 93.86,61.43 94.25,61.41 94.63,61.39 95.02,61.36 95.4,61.34 95.79,61.33 96.17,61.31 96.56,61.28 96.94,61.24 97.33,61.22 97.71,61.2 98.1,61.16 98.49,61.12 98.87,61.1 99.26,61.08 99.64,61.06 100.03,61.02 100.41,60.98 100.8,60.95 101.18,60.92 101.57,60.9 101.95,60.9 102.34,60.9 102.72,60.88 103.11,60.84 103.49,60.83 103.88,60.82 104.26,60.8 104.65,60.78 105.03,60.78 105.42,60.76 105.81,60.71 106.19,60.68 106.58,60.67 106.96,60.67 107.35,60.66 107.73,60.63 108.12,60.6 108.5,60.58 108.89,60.58 109.27,60.57 109.66,60.56 110.04,60.56 110.43,60.54 110.81,60.51 111.2,60.5 111.58,60.49 111.97,60.49 112.35,60.48 112.74,60.48 113.13,60.49 113.51,60.49 113.9,60.47 114.28,60.43 114.67,60.4 115.05,60.38 115.44,60.39 115.82,60.38 116.21,60.36 116.59,60.35 116.98,60.36 117.36,60.36 117.75,60.35 118.13,60.33 118.52,60.32 118.9,60.33 119.29,60.34 119.67,60.33 120.06,60.3 120.45,60.27 120.83,60.26 121.22,60.26 121.6,60.27 121.99,60.26 122.37,60.24 122.76,60.24 123.14,60.24 123.53,60.25 123.91,60.25 124.3,60.23 124.68,60.2 125.07,60.19 125.45,60.18 125.84,60.19 126.22,60.2 126.61,60.18 126.99,60.16 127.38,60.16 127.77,60.15 128.15,60.15 128.54,60.14 128.92,60.14 129.31,60.15 129.69,60.15 130.08,60.14 130.46,60.12 130.85,60.11 131.23,60.12 131.62,60.11 132,60.09 132.39,60.09 132.77,60.09 133.16,60.09 133.54,60.09 133.93,60.1 134.31,60.1 134.7,60.09 135.09,60.08 135.47,60.07 135.86,60.06 136.24,60.04 136.63,60.04 137.01,60.04 137.4,60.03 137.78,60.01 138.17,60 138.55,60 138.94,60.01 139.32,60.02 139.71,60.02 140.09,60.01 140.48,60 140.86,60 141.25,60 141.63,60 142.02,60 142.41,60 142.79,59.99 143.18,59.99 143.56,59.98 143.95,59.98 144.33,59.98 144.72,59.98 145.1,59.97 145.49,59.96 145.87,59.95 146.26,59.95 146.64,59.95 147.03,59.94 147.41,59.95 147.8,59.96 148.18,59.95 148.57,59.94 148.95,59.93 149.34,59.94 149.73,59.95 150.11,59.95 150.5,59.94 150.88,59.94 151.27,59.94 151.65,59.93 152.04,59.93 152.42,59.94 152.81,59.94 153.19,59.93 153.58,59.92 153.96,59.91 154.35,59.91 154.73,59.91 155.12,59.92 155.5,59.92 155.89,59.91 156.27,59.91 156.66,59.9 157.05,59.89 157.43,59.88 157.82,59.89 158.2,59.89 158.59,59.89 158.97,59.88 159.36,59.88 159.74,59.88 160.13,59.89 160.51,59.89 160.9,59.9 161.28,59.89 161.67,59.88 162.05,59.88 162.44,59.88 162.82,59.87 163.21,59.87 163.59,59.87 163.98,59.87 164.37,59.86 164.75,59.85 165.14,59.84 165.52,59.84 165.91,59.85 166.29,59.85 166.68,59.84 167.06,59.84 167.45,59.85 167.83,59.86 168.22,59.86 168.6,59.86 168.99,59.85 169.37,59.85 169.76,59.84 170.14,59.83 170.53,59.84 170.91,59.84 171.3,59.85 171.69,59.85 172.07,59.84 172.46,59.83 172.84,59.82 173.23,59.82 173.61,59.82 174,59.83 174.38,59.83 174.77,59.83 175.15,59.83 175.54,59.83 175.92,59.83 176.31,59.83 176.69,59.82 177.08,59.82 177.46,59.81 177.85,59.8 178.23,59.8 178.62,59.8 179.01,59.8 179.39,59.81 179.78,59.81 180.16,59.81 180.55,59.8 180.93,59.81 181.32,59.81 181.7,59.81 182.09,59.82 182.47,59.82 182.86,59.82 183.24,59.82 183.63,59.81 184.01,59.81 184.4,59.8 184.78,59.8 185.17,59.79 185.55,59.79 185.94,59.79 186.32,59.79 186.71,59.79 187.1,59.79 187.48,59.79 187.87,59.79 188.25,59.79 188.64,59.79 189.02,59.8 189.41,59.8 189.79,59.79 190.18,59.78 190.56,59.77 190.95,59.77 191.33,59.76 191.72,59.76 192.1,59.76 192.49,59.76 192.87,59.76 193.26,59.76 193.64,59.76 194.03,59.76 194.42,59.77 194.8,59.77 195.19,59.77 195.57,59.78 195.96,59.77 196.34,59.76 196.73,59.76 197.11,59.75 197.5,59.76 197.88,59.77 198.27,59.77 198.65,59.76 199.04,59.75 199.42,59.75 199.81,59.76 200.19,59.76 200.58,59.76 200.96,59.75 201.35,59.75 201.74,59.75 202.12,59.75 202.51,59.76 202.89,59.76 203.28,59.76 203.66,59.76 204.05,59.75 204.43,59.75 204.82,59.75 205.2,59.75 205.59,59.75 205.97,59.75 206.36,59.76 206.74,59.75 207.13,59.75 207.51,59.74 207.9,59.74 208.28,59.74 208.67,59.74 209.06,59.75 209.44,59.75 209.83,59.74 210.21,59.74 210.6,59.74 210.98,59.74 211.37,59.74 211.75,59.75 212.14,59.75 212.52,59.75 212.91,59.74 213.29,59.75 213.68,59.75 214.06,59.76 214.45,59.76 214.83,59.76 215.22,59.75 215.6,59.75 215.99,59.75 216.38,59.74 216.76,59.74 217.15,59.74 217.53,59.74 217.92,59.74 218.3,59.74 218.69,59.74 219.07,59.74 219.46,59.74 219.84,59.73 220.23,59.73 220.61,59.73 221,59.73 221.38,59.73 221.77,59.73 222.15,59.73 222.54,59.73 222.92,59.72 223.31,59.72 223.7,59.73 224.08,59.73 224.47,59.73 224.85,59.73 225.24,59.72 225.62,59.72 226.01,59.72 226.39,59.72 226.78,59.72 227.16,59.72 227.55,59.72 227.93,59.72 228.32,59.72 228.7,59.72 229.09,59.72 229.47,59.72 229.86,59.72 230.24,59.72 230.63,59.72 231.02,59.72 231.4,59.72 231.79,59.71 232.17,59.71 232.56,59.71 232.94,59.71 233.33,59.71 233.71,59.7 234.1,59.71 234.48,59.72 234.87,59.72 235.25,59.71 235.64,59.71 236.02,59.71 236.41,59.71 236.79,59.71 237.18,59.71 237.56,59.71 237.95,59.71 238.34,59.71 238.72,59.71 239.11,59.71 239.49,59.7 239.88,59.71 240.26,59.71 240.65,59.71 241.03,59.7 241.42,59.7 241.8,59.7 242.19,59.7 242.57,59.71 242.96,59.71 243.34,59.71 243.73,59.7 244.11,59.69 244.5,59.69 244.88,59.7 245.27,59.7 245.66,59.71 246.04,59.71 246.43,59.7 246.81,59.7 247.2,59.7 247.58,59.7 247.97,59.7 248.35,59.7 248.74,59.7 249.12,59.7 249.51,59.69 249.89,59.69 250.28,59.69 250.66,59.69 251.05,59.69 251.43,59.69 251.82,59.69 252.2,59.69 252.59,59.69 252.98,59.69 253.36,59.69 253.75,59.68 254.13,59.68 254.52,59.69 254.9,59.69 255.29,59.69 255.67,59.7 256.06,59.7 256.44,59.7 256.83,59.7 257.21,59.69 257.6,59.69 257.98,59.69 258.37,59.69 258.75,59.69 259.14,59.69 259.52,59.69 259.91,59.68 260.3,59.67 260.68,59.64 261.07,59.62 261.45,59.6 261.84,59.6" stroke-dasharray="none" stroke="rgb(31,120,180)" stroke-width="0.75" opacity="1" stroke-opacity="1" fill="none"/>
          </g>
        </g>
        <g id="Fig:densplot_01.panel.1.1.off.vp.2">
          <g id="Fig:densplot_01.border.panel.1.1.1">
            <rect id="Fig:densplot_01.border.panel.1.1.1.1" x="50.8" y="48.19" width="225.2" height="185.81" transform="" stroke="rgb(0,0,0)" stroke-dasharray="none" stroke-width="0.75" opacity="1" fill="none" stroke-opacity="1" fill-opacity="0"/>
          </g>
        </g>
        <g id="Fig:densplot_01..1"/>
      </g>
    </g>
  </g>
</svg>